<?xml version="1.0" encoding="UTF-8" standalone="no"?>
<!-- Created with Inkscape (http://www.inkscape.org/) -->

<svg
   version="1.1"
   id="svg1"
   width="951"
   height="1316"
   viewBox="0 0 951 1316"
   sodipodi:docname="My logo.svg"
   inkscape:version="1.3.2 (091e20e, 2023-11-25, custom)"
   xml:space="preserve"
   xmlns:inkscape="http://www.inkscape.org/namespaces/inkscape"
   xmlns:sodipodi="http://sodipodi.sourceforge.net/DTD/sodipodi-0.dtd"
   xmlns:xlink="http://www.w3.org/1999/xlink"
   xmlns="http://www.w3.org/2000/svg"
   xmlns:svg="http://www.w3.org/2000/svg"><defs
     id="defs1"><linearGradient
       id="swatch72"
       inkscape:swatch="solid"><stop
         style="stop-color:#ff7a0c;stop-opacity:1;"
         offset="0"
         id="stop72" /></linearGradient><inkscape:path-effect
       effect="bspline"
       id="path-effect54"
       is_visible="true"
       lpeversion="1.3"
       weight="33.333333"
       steps="2"
       helper_size="0"
       apply_no_weight="true"
       apply_with_weight="true"
       only_selected="false"
       uniform="false" /><inkscape:path-effect
       effect="bspline"
       id="path-effect53"
       is_visible="true"
       lpeversion="1.3"
       weight="33.333333"
       steps="2"
       helper_size="0"
       apply_no_weight="true"
       apply_with_weight="true"
       only_selected="false"
       uniform="false" /><inkscape:path-effect
       effect="bspline"
       id="path-effect51"
       is_visible="true"
       lpeversion="1.3"
       weight="33.333333"
       steps="2"
       helper_size="0"
       apply_no_weight="true"
       apply_with_weight="true"
       only_selected="false"
       uniform="false" /><inkscape:path-effect
       effect="bspline"
       id="path-effect50"
       is_visible="true"
       lpeversion="1.3"
       weight="33.333333"
       steps="2"
       helper_size="0"
       apply_no_weight="true"
       apply_with_weight="true"
       only_selected="false"
       uniform="false" /><inkscape:path-effect
       effect="bspline"
       id="path-effect49"
       is_visible="true"
       lpeversion="1.3"
       weight="33.333333"
       steps="2"
       helper_size="0"
       apply_no_weight="true"
       apply_with_weight="true"
       only_selected="false"
       uniform="false" /><inkscape:path-effect
       effect="bspline"
       id="path-effect48"
       is_visible="true"
       lpeversion="1.3"
       weight="33.333333"
       steps="2"
       helper_size="0"
       apply_no_weight="true"
       apply_with_weight="true"
       only_selected="false"
       uniform="false" /><inkscape:path-effect
       effect="bspline"
       id="path-effect47"
       is_visible="true"
       lpeversion="1.3"
       weight="33.333333"
       steps="2"
       helper_size="0"
       apply_no_weight="true"
       apply_with_weight="true"
       only_selected="false"
       uniform="false" /><inkscape:path-effect
       effect="bspline"
       id="path-effect46"
       is_visible="true"
       lpeversion="1.3"
       weight="33.333333"
       steps="2"
       helper_size="0"
       apply_no_weight="true"
       apply_with_weight="true"
       only_selected="false"
       uniform="false" /><inkscape:path-effect
       effect="bspline"
       id="path-effect45"
       is_visible="true"
       lpeversion="1.3"
       weight="33.333333"
       steps="2"
       helper_size="0"
       apply_no_weight="true"
       apply_with_weight="true"
       only_selected="false"
       uniform="false" /><clipPath
       clipPathUnits="userSpaceOnUse"
       id="clipPath52"><path
         id="path52"
         style="stroke-width:0.1;stroke-linecap:square;paint-order:markers fill stroke;stop-color:#000000"
         d="m -880.82767,-187.29769 h 1640.84 v 73.28155 h -1640.84 z" /></clipPath><inkscape:path-effect
       effect="bspline"
       id="path-effect24"
       is_visible="true"
       lpeversion="1.3"
       weight="33.333333"
       steps="2"
       helper_size="0"
       apply_no_weight="true"
       apply_with_weight="true"
       only_selected="false"
       uniform="false" /><inkscape:path-effect
       effect="bspline"
       id="path-effect23"
       is_visible="true"
       lpeversion="1.3"
       weight="33.333333"
       steps="2"
       helper_size="0"
       apply_no_weight="true"
       apply_with_weight="true"
       only_selected="false"
       uniform="false" /><inkscape:path-effect
       effect="bspline"
       id="path-effect22"
       is_visible="true"
       lpeversion="1.3"
       weight="33.333333"
       steps="2"
       helper_size="0"
       apply_no_weight="true"
       apply_with_weight="true"
       only_selected="false"
       uniform="false" /><clipPath
       clipPathUnits="userSpaceOnUse"
       id="clipPath27"><rect
         style="fill:none;stroke:#000000;stroke-width:0.999999;stroke-linecap:butt;stroke-linejoin:bevel;paint-order:stroke markers fill;stop-color:#000000"
         id="rect28-6"
         width="46.160622"
         height="39.922417"
         x="86.574379"
         y="420.06253" /></clipPath><linearGradient
       id="swatch11"
       inkscape:swatch="solid"><stop
         style="stop-color:#ff9055;stop-opacity:1;"
         offset="0"
         id="stop11" /></linearGradient><inkscape:path-effect
       effect="bspline"
       id="path-effect1"
       is_visible="true"
       lpeversion="1.3"
       weight="33.333333"
       steps="2"
       helper_size="0"
       apply_no_weight="true"
       apply_with_weight="true"
       only_selected="false"
       uniform="false" /><inkscape:path-effect
       effect="bspline"
       id="path-effect45-3"
       is_visible="true"
       lpeversion="1.3"
       weight="33.333333"
       steps="2"
       helper_size="0"
       apply_no_weight="true"
       apply_with_weight="true"
       only_selected="false"
       uniform="false" /><inkscape:path-effect
       effect="bspline"
       id="path-effect46-3"
       is_visible="true"
       lpeversion="1.3"
       weight="33.333333"
       steps="2"
       helper_size="0"
       apply_no_weight="true"
       apply_with_weight="true"
       only_selected="false"
       uniform="false" /><inkscape:path-effect
       effect="bspline"
       id="path-effect47-9"
       is_visible="true"
       lpeversion="1.3"
       weight="33.333333"
       steps="2"
       helper_size="0"
       apply_no_weight="true"
       apply_with_weight="true"
       only_selected="false"
       uniform="false" /><inkscape:path-effect
       effect="bspline"
       id="path-effect48-6"
       is_visible="true"
       lpeversion="1.3"
       weight="33.333333"
       steps="2"
       helper_size="0"
       apply_no_weight="true"
       apply_with_weight="true"
       only_selected="false"
       uniform="false" /><inkscape:path-effect
       effect="bspline"
       id="path-effect48-6-7"
       is_visible="true"
       lpeversion="1.3"
       weight="33.333333"
       steps="2"
       helper_size="0"
       apply_no_weight="true"
       apply_with_weight="true"
       only_selected="false"
       uniform="false" /><inkscape:path-effect
       effect="bspline"
       id="path-effect51-2"
       is_visible="true"
       lpeversion="1.3"
       weight="33.333333"
       steps="2"
       helper_size="0"
       apply_no_weight="true"
       apply_with_weight="true"
       only_selected="false"
       uniform="false" /><inkscape:path-effect
       effect="bspline"
       id="path-effect53-4"
       is_visible="true"
       lpeversion="1.3"
       weight="33.333333"
       steps="2"
       helper_size="0"
       apply_no_weight="true"
       apply_with_weight="true"
       only_selected="false"
       uniform="false" /><inkscape:path-effect
       effect="bspline"
       id="path-effect48-6-7-8"
       is_visible="true"
       lpeversion="1.3"
       weight="33.333333"
       steps="2"
       helper_size="0"
       apply_no_weight="true"
       apply_with_weight="true"
       only_selected="false"
       uniform="false" /><inkscape:path-effect
       effect="bspline"
       id="path-effect48-6-7-5"
       is_visible="true"
       lpeversion="1.3"
       weight="33.333333"
       steps="2"
       helper_size="0"
       apply_no_weight="true"
       apply_with_weight="true"
       only_selected="false"
       uniform="false" /><linearGradient
       inkscape:collect="always"
       xlink:href="#swatch72"
       id="linearGradient72"
       x1="27.647637"
       y1="591.63997"
       x2="914.48359"
       y2="591.63997"
       gradientUnits="userSpaceOnUse" /></defs><sodipodi:namedview
     id="namedview1"
     pagecolor="#ffffff"
     bordercolor="#000000"
     borderopacity="0.25"
     inkscape:showpageshadow="2"
     inkscape:pageopacity="0.0"
     inkscape:pagecheckerboard="0"
     inkscape:deskcolor="#d1d1d1"
     inkscape:zoom="0.17516475"
     inkscape:cx="-77.070301"
     inkscape:cy="799.24757"
     inkscape:window-width="1440"
     inkscape:window-height="890"
     inkscape:window-x="-6"
     inkscape:window-y="-6"
     inkscape:window-maximized="1"
     inkscape:current-layer="layer1"
     showguides="false" /><g
     inkscape:groupmode="layer"
     id="layer1"
     inkscape:label="gorbe"
     style="display:inline;opacity:1"><path
       id="path1"
       style="display:inline;opacity:1;fill:url(#linearGradient72);fill-opacity:1;fill-rule:evenodd"
       d="M 879.39258 41.441406 C 814.41932 72.172173 721.04676 124.83438 653.80078 149.96094 C 527.11551 183.81338 377.39113 184.08563 254.84961 133.87695 C 192.95172 112.00813 139.56169 73.242475 78.183594 47.607422 C 79.017977 108.296 100.61445 201.5211 78.115234 251.94531 C 36.03848 406.47116 27.182498 400.54591 27.666016 496.67383 C 38.455454 620.92255 39.127289 623.29506 60.017578 722.1875 C 155.8206 768.3676 155.02959 765.81488 187.91992 814.56641 C 189.94945 817.1678 191.39123 819.32662 193.21094 821.76172 C 196.31982 821.465 202.2478 821.26471 213.61133 821.20703 C 237.04201 821.08809 282.95076 821.56332 308.75977 822.03906 C 310.81984 822.07704 312.11303 822.11974 313.9375 822.1582 C 307.26936 817.67988 307.10823 811.10546 315.56055 799.79297 C 328.51117 782.45994 361.14033 753.86584 375.35352 739.40039 C 389.56664 724.935 385.36183 724.60007 379.30664 724.26367 C 373.25145 723.92727 365.34732 723.58963 361.39453 722.32812 C 357.44181 721.06668 357.44083 718.87979 356.43164 713.91797 C 355.42245 708.95608 353.40469 700.71417 350.29297 689.86523 C 347.18124 679.01635 342.97672 665.56019 337.17383 651.68359 C 331.37088 637.80706 323.97017 623.51099 315.89648 612.74609 C 307.82286 601.98119 299.07628 594.74939 284.7793 588.10547 C 270.48225 581.46155 250.63356 575.40611 230.28125 572.71484 C 209.92894 570.02364 189.07381 570.69594 163.84375 575.91016 C 138.61369 581.12431 109.00987 590.87984 93.451172 597.27148 C 77.89244 603.66319 76.379332 606.69074 75.794922 611.56836 C 75.210506 616.44592 75.554795 623.17254 77.480469 632.33984 C 79.406143 641.50715 82.937784 653.61913 88.404297 666.40234 C 93.870803 679.18562 101.27184 692.64167 109.89062 705.81445 C 118.50947 718.98729 128.34608 731.87661 137.26367 742.53516 C 146.18126 753.1937 154.42325 761.94013 154.75977 764.21094 C 155.09629 766.48175 147.52774 762.27707 141.42969 757.36523 C 135.33157 752.45346 130.7033 746.8333 122.29492 734.79102 C 113.88654 722.74867 101.94582 704.58402 92.664062 687.86133 C 83.382305 671.13858 76.761088 655.85827 71.019531 637.58203 C 65.277981 619.30579 60.231079 597.60744 62.669922 583.47852 C 65.108759 569.34953 75.033736 562.79063 88.826172 555.97852 C 102.61863 549.16634 120.27828 542.10133 146.51758 538.06445 C 172.75681 534.02764 207.57383 533.01931 234.6543 538.90625 C 261.7347 544.79319 281.07811 557.57549 290.41016 555.05273 C 299.7422 552.53004 299.06369 534.70272 300.66797 528.22656 C 302.27224 521.75047 306.14058 526.12367 310.53711 536.46094 C 314.93357 546.7982 319.85778 563.09926 330.74414 591.62305 C 341.6305 620.14683 358.61789 661.35448 375.10156 684.56641 C 391.5853 707.77827 407.56542 712.99249 415.30273 712.74023 C 423.04011 712.48798 422.53576 706.77009 420.68555 696.42578 C 418.83534 686.08147 415.63937 671.11213 408.71484 649.8457 C 401.79038 628.57927 391.13747 601.0156 382.19531 580.05273 C 373.25315 559.08992 365.85156 544.2896 355.92773 528.31055 C 346.00391 512.33144 333.55647 495.17393 322.37109 485.25 C 311.18572 475.32607 301.26223 472.63585 288.14258 470.44922 C 275.02292 468.26259 258.70717 466.5802 238.77539 467.92578 C 218.84362 469.27137 195.29637 473.64375 177.29883 478.4375 C 159.30128 483.23125 146.85373 488.44535 132.55664 496.93945 C 118.25955 505.43356 102.11427 517.20778 94.376953 522.25391 C 86.639628 527.29997 87.310838 525.61743 97.107422 512.95117 C 106.90401 500.28492 125.82487 476.63596 139.45117 462.44141 C 153.07753 448.2468 161.65629 443.2001 170.15039 439.75195 C 178.64449 436.30387 187.05492 434.45409 195.38086 432.35156 C 203.70679 430.24904 211.94794 427.89376 228.51562 427.05273 C 230.5866 426.94761 232.78768 426.86525 235.09961 426.82812 C 251.28298 426.56831 272.89997 428.48271 293.35742 439.66797 C 316.73738 452.45113 338.60358 477.34458 356.9375 502.23828 C 375.27142 527.13204 390.0714 552.02567 399.1543 568.76172 C 408.2372 585.49777 411.60109 594.07632 415.83008 606.51562 C 420.059 618.95499 425.15443 635.25536 428.55469 647.46484 C 431.95489 659.67439 433.8042 668.25188 435.57031 676.83008 C 437.33642 685.40827 439.01953 693.98628 439.99219 707.51758 C 440.96484 721.04881 441.22805 739.53385 438.80664 757.5957 C 436.38523 775.65762 431.0244 794.17462 428.17383 803.92969 C 425.32326 813.68475 424.43425 816.4054 423.06445 817.3457 C 421.69465 818.28601 419.84312 817.44545 416.05859 815.93164 C 412.27413 814.41783 406.55601 812.23114 399.91211 810.29688 C 393.26821 808.36255 385.69856 806.68156 379.13867 805.33594 C 372.57885 803.99032 367.0292 802.98036 364.25391 803.06445 C 361.47855 803.14854 361.47744 804.32537 363.45117 806.28711 C 365.4249 808.24885 369.37228 810.99674 376.10547 814.89453 C 382.19152 818.41775 390.49265 822.83444 396.86328 826.16992 C 420.39288 827.51755 445.51572 829.08578 461.23438 830.95898 C 466.88509 831.6324 470.73555 832.39145 473.91211 833.24609 C 476.26694 832.82787 478.91938 832.43266 482.10742 832.05273 C 497.7245 830.19163 522.63056 828.63258 546.04688 827.28906 C 546.1148 827.25381 546.1618 827.24466 546.23047 827.20898 C 552.70621 823.845 562.46213 818.63216 569.19531 814.73438 C 575.92856 810.83652 579.87588 808.0887 581.84961 806.12695 C 583.82334 804.16528 583.82419 802.98839 581.04883 802.9043 C 578.27347 802.82021 572.72192 803.83016 566.16211 805.17578 C 559.6023 806.5214 552.03459 808.2024 545.39062 810.13672 C 538.74673 812.07104 533.02664 814.25774 529.24219 815.77148 C 525.45766 817.2853 523.60808 818.12585 522.23828 817.18555 C 520.86848 816.24524 519.97941 813.52459 517.12891 803.76953 C 514.27833 794.01448 508.9175 775.49738 506.49609 757.43555 C 504.07475 739.37364 504.33789 720.88871 505.31055 707.35742 C 506.2832 693.82621 507.96436 685.24811 509.73047 676.66992 C 511.49658 668.09174 513.34779 659.51422 516.74805 647.30469 C 520.14824 635.09516 525.24179 618.79482 529.4707 606.35547 C 533.69969 593.91611 537.06359 585.33767 546.14648 568.60156 C 555.22945 551.86553 570.03133 526.97187 588.36523 502.07812 C 606.69921 477.18445 628.56544 452.29097 651.94531 439.50781 C 672.40274 428.32256 694.01978 426.40809 710.20312 426.66797 C 712.51505 426.70509 714.71418 426.78745 716.78516 426.89258 C 733.35283 427.7336 741.59588 430.08888 749.92188 432.19141 C 758.2478 434.29386 766.65826 436.14365 775.15234 439.5918 C 783.6465 443.03987 792.22326 448.08665 805.84961 462.28125 C 819.47596 476.47585 838.39679 500.12477 848.19336 512.79102 C 857.98993 525.45719 858.66308 527.1398 850.92578 522.09375 C 843.18848 517.0477 827.04122 505.27339 812.74414 496.7793 C 798.44706 488.2852 785.99955 483.0711 768.00195 478.27734 C 750.00443 473.48366 726.45715 469.11121 706.52539 467.76562 C 686.59364 466.42011 670.27785 468.10243 657.1582 470.28906 C 644.03863 472.47569 634.11506 475.16593 622.92969 485.08984 C 611.74432 495.01376 599.29882 512.17136 589.375 528.15039 C 579.45118 544.12942 572.04957 558.92973 563.10742 579.89258 C 554.16527 600.85543 543.51234 628.41914 536.58789 649.68555 C 529.66344 670.95196 526.4674 685.9214 524.61719 696.26562 C 522.76698 706.60992 522.2627 712.32783 530 712.58008 C 537.7373 712.83233 553.71556 707.61816 570.19922 684.40625 C 586.68287 661.19434 603.67224 619.98665 614.55859 591.46289 C 625.44494 562.93913 630.36917 546.63804 634.76562 536.30078 C 639.16215 525.96352 643.03049 521.59025 644.63477 528.06641 C 646.23897 534.54249 645.56054 552.36982 654.89258 554.89258 C 664.22462 557.41533 683.56611 544.63309 710.64648 538.74609 C 737.72693 532.85916 772.544 533.86742 798.7832 537.9043 C 825.02248 541.9411 842.68418 549.00625 856.47656 555.81836 C 870.26901 562.63047 880.192 569.18939 882.63086 583.31836 C 885.06971 597.44733 880.02479 619.14558 874.2832 637.42188 C 868.54169 655.6981 861.92042 670.9785 852.63867 687.70117 C 843.35692 704.42391 831.41423 722.58852 823.00586 734.63086 C 814.59749 746.6732 809.97109 752.29324 803.87305 757.20508 C 797.77493 762.11684 790.2045 766.32159 790.54102 764.05078 C 790.87754 761.77997 799.11953 753.03353 808.03711 742.375 C 816.95469 731.71647 826.79131 718.82706 835.41016 705.6543 C 844.02893 692.48147 851.43001 679.02539 856.89648 666.24219 C 862.36303 653.45892 865.89658 641.34893 867.82227 632.18164 C 869.74788 623.01435 870.09223 616.28582 869.50781 611.4082 C 868.9234 606.53065 867.41031 603.50297 851.85156 597.11133 C 836.29288 590.71962 806.68909 580.96414 781.45898 575.75 C 756.22895 570.53586 735.37182 569.86342 715.01953 572.55469 C 694.66724 575.24588 674.8204 581.3014 660.52344 587.94531 C 646.2264 594.58929 637.47987 601.82105 629.40625 612.58594 C 621.33263 623.35083 613.93179 637.64881 608.12891 651.52539 C 602.32595 665.40198 598.12142 678.85615 595.00977 689.70508 C 591.89804 700.55401 589.87833 708.796 588.86914 713.75781 C 587.85995 718.7197 587.86099 720.90646 583.9082 722.16797 C 579.95549 723.42948 572.04932 723.76711 565.99414 724.10352 C 559.93896 724.43992 555.73409 724.77487 569.94727 739.24023 C 584.16037 753.70567 616.79151 782.29981 629.74219 799.63281 C 639.02561 812.05771 637.92851 818.77084 629.19141 823.25586 C 631.0817 823.21578 632.43724 823.17235 634.58203 823.13281 C 660.39106 822.65707 706.29974 822.18184 729.73047 822.30078 C 733.56866 822.32026 735.97021 822.37986 738.69141 822.42969 C 770.18308 774.72669 771.64859 773.39076 874.55469 723.63477 C 896.15853 633.9588 897.68009 635.90067 914.31641 494.78711 C 914.91832 444.81935 915.97512 406.24128 876.20117 243.70508 C 859.9288 196.90375 878.58482 128.17047 879.39258 41.441406 z M 106.38086 77.074219 L 350.60742 283.96094 L 292.07422 281.94141 L 471.71094 627.08984 L 472.03711 636.54297 L 472.30664 628.73242 L 651.94531 283.58594 L 593.41016 285.60352 L 837.63867 78.71875 L 824.51758 291.66016 L 774.05859 393.58984 L 811.39844 119.08594 L 674.14648 256.33789 L 674.14648 257.3457 L 701.39648 253.31055 L 667.08203 292.66797 L 695.33984 290.65039 L 472.69727 655.70312 L 472.7207 656.35547 L 472.50977 656.00977 L 471.29688 658 L 471.42773 654.23438 L 248.67773 289.00586 L 276.93555 291.02539 L 242.62305 251.66602 L 269.87109 255.70312 L 269.87109 254.69336 L 132.61914 117.44141 L 169.96094 391.94531 L 119.5 290.01562 L 106.38086 77.074219 z M 361.11328 194.65234 C 361.79456 194.70138 362.95219 195.09857 364.56055 195.76953 C 365.24986 195.8336 365.96538 195.91992 366.74023 196.05859 C 384.35764 199.21146 424.63767 222.16903 444.30273 233.41016 C 463.96779 244.65128 463.01708 244.17422 446.30664 235.9082 C 429.59621 227.64219 397.12661 211.58695 379.76172 203.02344 C 372.08008 199.23523 367.46296 196.98034 364.56055 195.76953 C 362.72784 195.59919 361.18164 195.67573 359.89844 195.98047 C 359.79641 198.4354 361.49757 203.86919 362.99219 207.7207 C 364.53837 211.7051 365.84543 213.96458 366.26172 225.14453 C 366.678 236.32448 366.20362 256.42436 365.63867 272.98633 C 365.07372 289.54828 364.41849 302.57241 362.61914 310.96875 C 360.81979 319.36509 357.87612 323.13463 356.33203 325.00977 C 354.78795 326.88489 354.7306 326.75398 355.45898 318.36328 C 356.18738 309.97258 357.70195 293.32208 358.54297 280.79102 C 359.38398 268.25994 359.55105 259.84946 359.55273 251.52344 C 359.55442 243.19742 359.38973 234.9549 356.7793 222.25586 C 354.58893 211.60037 350.69098 198.16707 359.89844 195.98047 C 359.90196 195.89577 359.8905 195.78633 359.89844 195.70898 C 359.97278 194.98423 360.24478 194.58984 361.11328 194.65234 z M 588.87109 195.16992 C 589.7396 195.10742 590.0116 195.5018 590.08594 196.22656 C 590.09394 196.30426 590.08194 196.41482 590.08594 196.5 C 599.29523 198.68548 595.39752 212.11942 593.20703 222.77539 C 590.59659 235.47432 590.42996 243.71499 590.43164 252.04102 C 590.43364 260.36693 590.60234 268.77775 591.44336 281.30859 C 592.28438 293.83956 593.79895 310.49222 594.52734 318.88281 C 595.25574 327.2734 595.19838 327.40248 593.6543 325.52734 C 592.11021 323.65233 589.16458 319.88256 587.36523 311.48633 C 585.56601 303.09009 584.9126 290.06759 584.34766 273.50586 C 583.78271 256.94413 583.30637 236.8439 583.72266 225.66406 C 584.13894 214.48422 585.44796 212.22268 586.99414 208.23828 C 588.48848 204.38758 590.18729 198.95557 590.08594 196.5 C 588.80259 196.19545 587.25667 196.11659 585.42383 196.28711 C 582.52133 197.49802 577.90536 199.75319 570.22461 203.54102 C 552.85994 212.10441 520.3899 228.16183 503.67969 236.42773 C 486.96935 244.69376 486.01875 245.16875 505.68359 233.92773 C 525.34843 222.68684 565.62892 199.72904 583.24609 196.57617 C 584.02022 196.43763 584.73509 196.35119 585.42383 196.28711 C 587.03268 195.6159 588.18969 195.21896 588.87109 195.16992 z M 421.82227 266.10547 C 422.8756 266.09843 423.93883 266.20184 424.99805 266.42383 C 434.40541 268.39538 440.34993 278.62932 438.48242 288.5293 L 432.60156 286.91406 C 431.38243 294.39241 424.30589 299.1531 417.43555 297.81055 C 409.62894 296.28505 404.67426 287.83931 406.13477 279.65039 C 407.56834 271.612 414.44835 266.15471 421.82227 266.10547 z M 432.60156 286.91406 C 433.65751 280.4368 429.69246 273.77695 423.48633 272.70117 C 418.21998 271.7883 412.81245 275.49525 412.01758 281.26562 C 411.36128 286.03013 414.34273 290.91514 418.94922 291.5332 C 422.60981 292.02435 426.36234 289.36413 426.7207 285.30078 L 420.83984 283.68555 C 421.72448 283.92835 420.96883 285.07908 420.46094 285.25586 C 419.08458 285.73492 417.96812 284.19426 417.89844 282.87891 C 417.7738 280.5259 419.9236 278.88532 421.97266 278.97852 C 424.97966 279.11528 426.98957 282.25214 426.7207 285.30078 L 432.60156 286.91406 z M 520.80859 266.2832 C 521.86201 266.27617 522.92516 266.37958 523.98438 266.60156 C 533.39173 268.57312 539.33821 278.80706 537.4707 288.70703 L 531.58789 287.09375 C 530.36875 294.57201 523.29416 299.33279 516.42383 297.99023 C 508.61731 296.46483 503.66254 288.01899 505.12305 279.83008 C 506.5567 271.7917 513.43477 266.33244 520.80859 266.2832 z M 531.58789 287.09375 C 532.64384 280.6165 528.67878 273.95469 522.47266 272.87891 C 517.20631 271.96604 511.79878 275.67299 511.00391 281.44336 C 510.3476 286.20778 513.32906 291.09483 517.93555 291.71289 C 521.59605 292.20404 525.34867 289.54178 525.70703 285.47852 L 519.82617 283.86523 C 520.7108 284.10804 519.95516 285.25681 519.44727 285.43359 C 518.0709 285.91265 516.95445 284.37403 516.88477 283.05859 C 516.76013 280.70568 518.91188 279.06306 520.96094 279.15625 C 523.96793 279.29302 525.9759 282.42988 525.70703 285.47852 L 531.58789 287.09375 z M 470.28906 297.46289 L 479.62305 312.0957 L 470.03516 335.8125 L 460.95312 312.34766 L 470.28906 297.46289 z M 737.93555 592.33203 C 745.82078 592.32366 752.82234 592.58024 757.74219 592.99023 C 770.86169 594.08356 769.1798 596.27045 764.89062 602.66211 C 760.6015 609.05377 753.70563 619.65123 739.24023 627.55664 C 734.65817 630.06077 729.26131 632.19734 723.70312 634.16406 C 727.08614 632.44781 723.56698 632.41688 719.91797 631.79492 C 716.112 631.14621 712.18621 629.84906 710.2832 628.42188 C 708.3802 626.99469 708.50015 625.43864 709.1543 620.11914 C 709.80844 614.79964 710.99761 605.71774 713.01953 600.13867 C 714.37897 596.38758 716.10935 594.22439 716.48633 593.0293 C 723.7919 592.56287 731.17505 592.33921 737.93555 592.33203 z M 213.75391 593.03711 C 219.37936 593.04308 225.52268 593.26615 231.61328 593.58203 C 232.09833 594.81182 233.72164 596.94225 235.01172 600.50195 C 237.03364 606.08102 238.22281 615.16292 238.87695 620.48242 C 239.5311 625.80192 239.6491 627.35797 237.74609 628.78516 C 235.84309 630.21234 231.91925 631.50949 228.11328 632.1582 C 225.9595 632.52531 223.84648 632.68555 223.16992 633.10742 C 219.37509 631.60958 215.67941 630.02704 212.44922 628.26172 C 197.98382 620.3563 191.08796 609.75886 186.79883 603.36719 C 182.50965 596.97547 180.8277 594.78864 193.94727 593.69531 C 198.86708 593.28532 205.86862 593.02874 213.75391 593.03711 z M 698.20508 594.93555 C 697.13048 596.24438 695.88124 598.4022 693.95508 602.09766 C 689.2816 611.06398 680.6477 628.9973 677.20898 638.24609 C 675.93331 641.67715 675.39591 643.86618 675.41797 645.24219 C 672.65799 645.18121 670.1074 644.78921 666.66211 643.95508 C 658.67252 642.02074 645.72053 638.15187 640.16992 634.19922 C 634.61936 630.24651 636.47005 626.21039 639.75 622.3418 C 643.02995 618.47316 647.74031 614.77263 656.15039 609.72656 C 664.56048 604.68054 676.66954 598.28956 696.68555 595.09375 C 697.15171 595.01932 697.73062 595.00654 698.20508 594.93555 z M 249.78906 595.25586 C 251.47831 595.47157 253.40407 595.54339 255.00391 595.79883 C 275.01993 598.99459 287.12897 605.38561 295.53906 610.43164 C 303.94916 615.47771 308.65954 619.17823 311.93945 623.04688 C 315.21941 626.91548 317.07014 630.95159 311.51953 634.9043 C 305.96896 638.85696 293.01699 642.72581 285.02734 644.66016 C 280.33841 645.79536 276.8083 646.00682 272.61328 645.67383 C 272.65414 644.30233 272.11856 642.0959 270.82227 638.60938 C 267.38355 629.36058 258.74965 611.42726 254.07617 602.46094 C 252.12908 598.72533 250.87146 596.56002 249.78906 595.25586 z M 195.21289 824.48438 C 206.67888 840.11999 214.51056 853.16172 220.68945 867.4668 C 222.98108 867.10939 223.41651 867.02887 226.69336 866.52148 C 245.12867 863.66701 280.57181 858.19559 298.29297 854.98438 C 316.01413 851.77313 316.01408 850.82056 316.25195 848.67969 C 316.48983 846.53881 316.96585 843.20891 317.21094 840.31836 C 317.45602 837.42781 317.47001 834.97837 297.5918 832.7168 C 277.71358 830.4552 238.00754 828.38879 216.47266 826.75977 C 204.86185 825.88144 198.75733 825.13866 195.21289 824.48438 z M 735.98633 827.05078 C 733.24164 827.31067 730.64831 827.56763 726.86914 827.85352 C 705.3342 829.48255 665.62824 831.5509 645.75 833.8125 C 625.87176 836.0741 625.88577 838.52156 626.13086 841.41211 C 626.37595 844.30266 626.85197 847.63256 627.08984 849.77344 C 627.32772 851.91431 627.32765 852.8669 645.04883 856.07812 C 662.43176 859.22807 696.5636 864.50413 715.27148 867.40039 C 721.934 854.49293 728.23189 842.38788 735.98633 827.05078 z M 325.05078 837.24805 L 323.98047 846.70312 L 393.02344 840.10156 L 325.05078 837.24805 z M 617.16016 837.49805 L 549.1875 840.35156 L 618.23047 846.95312 L 617.16016 837.49805 z M 471.41406 858.86133 C 451.84791 859.04439 432.97176 862.82377 425.12695 870.35352 C 408.39137 886.41697 441.86214 919.55204 475.33398 920.05664 C 508.80583 920.56124 542.27761 888.43492 525.54102 871.86719 C 516.6497 863.06558 493.58904 858.65385 471.41406 858.86133 z M 300.73242 863.12109 C 299.05925 863.14324 297.14837 863.20452 294.96289 863.30859 C 277.47908 864.14118 242.51251 867.70967 224.67188 869.25586 C 223.30497 869.37432 222.65154 869.41017 221.47852 869.50586 C 228.06205 885.16183 233.71991 903.76435 241.66602 929.59961 C 259.21299 921.71722 282.86537 911.74175 296.11914 905.66406 C 311.9698 898.39556 312.20767 896.96819 312.27734 893.36523 C 312.34701 889.76231 312.26172 884.70234 312.26172 879.21875 C 312.26172 873.73516 312.35419 870.01017 312.40039 867.19531 C 312.44081 864.73231 312.44459 862.96604 300.73242 863.12109 z M 642.60938 864.2168 C 630.8972 864.06175 630.90098 865.82606 630.94141 868.28906 C 630.9876 871.10392 631.08008 874.83085 631.08008 880.31445 C 631.08008 885.79808 630.99478 890.85605 631.06445 894.45898 C 631.13412 898.06194 631.37196 899.4893 647.22266 906.75781 C 656.97 911.22758 672.43497 917.84376 686.98828 924.18945 C 699.09102 899.28591 707.40172 882.69675 713.97852 869.91797 C 695.34103 868.24324 664.70023 865.18152 648.37891 864.4043 C 646.19342 864.30022 644.28253 864.23895 642.60938 864.2168 z M 320.41211 865.61328 L 318.98633 893.44531 L 387.49219 870.04102 L 320.41211 865.61328 z M 619.83594 867.0332 L 552.75586 871.46094 L 621.26172 894.86328 L 619.83594 867.0332 z M 394.62891 882.02734 L 321.83984 907.00391 L 324.69336 941.25586 L 407.47266 894.1582 L 394.62891 882.02734 z M 549.46484 884.57227 L 536.61914 896.70508 L 619.39844 943.80273 L 622.25391 909.54883 L 549.46484 884.57227 z M 414.60938 909.14453 L 328.26172 950.01562 L 328.26172 950.66406 L 337.93359 980.50586 L 414.60938 909.14453 z M 308.48633 910.55273 C 306.19214 910.75681 301.72228 912.05696 292.90234 915.25195 C 280.39427 919.78301 260.63205 927.56687 243.21484 934.48828 C 247.73432 949.139 253.56778 967.39834 260.35547 987.94141 C 271.9205 979.65877 293.20893 964.84592 304.08398 956.44336 C 315.46569 947.64936 314.99913 946.44428 314.58984 944.125 C 314.18056 941.80572 314.02733 939.36882 313.59375 935.65234 C 313.16017 931.9359 312.44645 926.93991 311.9707 922.6582 C 311.49496 918.37652 311.2574 914.80841 311.01953 912.42969 C 310.9006 911.24033 310.78052 910.34866 308.48633 910.55273 z M 528.76953 911.39844 L 605.44531 982.75977 L 615.11719 952.91797 L 615.11719 952.26953 L 528.76953 911.39844 z M 634.85547 911.64648 C 632.56128 911.44241 632.4412 912.33408 632.32227 913.52344 C 632.08439 915.90216 631.84684 919.47026 631.37109 923.75195 C 630.89535 928.03366 630.18163 933.02964 629.74805 936.74609 C 629.31446 940.46257 629.16124 942.89947 628.75195 945.21875 C 628.34267 947.53803 627.8761 948.7431 639.25781 957.53711 C 645.08603 962.04023 653.96508 968.42606 662.80273 974.70703 C 670.37551 958.80768 678.8519 940.91986 684.44922 929.35938 C 671.71011 924.35829 658.98777 919.44233 650.43945 916.3457 C 641.61951 913.1507 637.14966 911.85056 634.85547 911.64648 z M 418.71875 917.66016 L 342.52148 987.35742 L 353.47852 999.57227 L 439.60742 930.78906 L 418.71875 917.66016 z M 525.65625 921.67188 L 505.07422 934.45703 L 589.9375 1001.4434 L 600.73438 989.54688 L 525.65625 921.67188 z M 470.91992 925.72852 C 461.94123 932.19316 444.33849 944.86786 425.70703 957.89062 C 406.95 971.00119 387.27692 984.37637 370.98242 996.62695 C 354.68795 1008.8776 341.77432 1020.0022 329.48438 1030.6973 C 319.16885 1039.6741 309.81249 1047.8532 303.20703 1053.459 C 344.51675 1099.8739 394.18881 1139.3418 453.72852 1141.5234 C 510.25551 1146.8146 577.53401 1084.3415 622.41016 1039.2461 C 619.52607 1036.7299 616.85655 1034.4029 613.85742 1031.793 C 601.56744 1021.0979 588.65386 1009.9733 572.35938 997.72266 C 556.06487 985.47204 536.39182 972.09493 517.63477 958.98438 C 498.8777 945.8738 481.03733 933.02994 472.11719 926.60742 C 471.43579 926.11682 471.5013 926.14751 470.91992 925.72852 z M 316.29102 959.10547 C 314.50064 959.04256 311.51503 960.35384 305.79883 963.48828 C 294.54901 969.65703 272.87877 982.78531 260.96484 989.7793 C 263.20005 996.52599 265.08352 1002.437 267.64648 1009.9434 C 274.1036 1018.4619 280.87085 1027.0209 287.84375 1035.5098 C 298.37261 1023.8937 312.84077 1008.8306 320.51172 999.70117 C 329.52912 988.96938 328.77314 986.77242 326.76562 981.45508 C 324.75814 976.13771 321.49855 967.7006 319.61719 962.9707 C 318.67651 960.60579 318.08136 959.16838 316.29102 959.10547 z M 627.05078 960.19922 C 625.26041 960.26213 624.66334 961.69953 623.72266 964.06445 C 621.84129 968.79435 618.58369 977.23146 616.57617 982.54883 C 614.56866 987.86618 613.81267 990.06316 622.83008 1000.7949 C 627.22928 1006.0305 633.97388 1013.3144 640.89648 1020.752 C 649.47586 1002.5436 654.40408 992.35799 661.11523 978.25391 C 652.28528 973.01304 643.48821 967.84206 637.54297 964.58203 C 631.82674 961.44759 628.84116 960.13631 627.05078 960.19922 z M 335.16211 998.00586 C 332.6644 998.00586 330.04768 1000.6507 319.10547 1011.6074 C 311.68601 1019.0367 300.41871 1030.2752 291.04102 1039.2461 C 294.75215 1043.6965 298.5054 1048.1185 302.36328 1052.4746 C 302.37732 1052.4614 302.38045 1052.4566 302.39453 1052.4434 C 312.083 1043.3074 331.2838 1025.8937 339.60938 1016.2598 C 347.93492 1006.6259 345.17597 1004.9619 342.60742 1002.8066 C 340.03888 1000.6514 337.65982 998.00586 335.16211 998.00586 z M 608.17969 999.09961 C 605.68198 999.09961 603.3029 1001.7451 600.73438 1003.9004 C 598.16583 1006.0556 595.40687 1007.7216 603.73242 1017.3555 C 608.36735 1022.7187 616.13964 1030.249 623.99805 1037.6641 C 628.16738 1033.4628 632.96022 1028.828 636.66992 1025.0449 C 632.2956 1020.7049 627.55339 1016.0226 624.23633 1012.7012 C 613.2941 1001.7445 610.6774 999.09961 608.17969 999.09961 z " /></g></svg>
